<mxfile host="app.diagrams.net" agent="Mozilla/5.0 (Windows NT 10.0; Win64; x64) AppleWebKit/537.36 (KHTML, like Gecko) Chrome/140.0.0.0 Safari/537.36 Edg/140.0.0.0" version="28.2.1">
  <diagram name="Page-1" id="HHHnHs_LKbYYPD6QSp3i">
    <mxGraphModel grid="1" page="1" gridSize="10" guides="1" tooltips="1" connect="1" arrows="1" fold="1" pageScale="1" pageWidth="850" pageHeight="1100" math="0" shadow="0">
      <root>
        <mxCell id="0" />
        <mxCell id="1" parent="0" />
        <mxCell id="Hw_CTKwdti1SMFfH982q-29" value="&lt;span style=&quot;text-wrap-mode: wrap;&quot;&gt;Branch(&lt;/span&gt;&lt;u&gt;Name &lt;/u&gt;(PK), Address (No, Street, District, City, Region), Email, Phone(s), Fax(s), NumOfEmp)" style="text;html=1;align=center;verticalAlign=middle;resizable=0;points=[];autosize=1;strokeColor=none;fillColor=none;" vertex="1" parent="1">
          <mxGeometry x="1120" y="210" width="560" height="30" as="geometry" />
        </mxCell>
        <mxCell id="Hw_CTKwdti1SMFfH982q-30" value="&lt;span style=&quot;text-wrap-mode: wrap;&quot;&gt;Employee(&lt;u&gt;Emp&lt;/u&gt;&lt;/span&gt;&lt;u&gt;Code &lt;/u&gt;(PK), FName, LName, DOB, Address (No, Street, District, City), Email, Phone,Name(PK))" style="text;html=1;align=center;verticalAlign=middle;resizable=0;points=[];autosize=1;strokeColor=none;fillColor=none;" vertex="1" parent="1">
          <mxGeometry x="1120" y="315" width="610" height="30" as="geometry" />
        </mxCell>
        <mxCell id="Hw_CTKwdti1SMFfH982q-31" value="&lt;span style=&quot;text-wrap-mode: wrap;&quot;&gt;Customer(&lt;u&gt;Cus&lt;/u&gt;&lt;/span&gt;&lt;u&gt;Code &lt;/u&gt;(PK), FName, LName, HomeAddress, OfficeAddress, Email, Phone,&lt;u style=&quot;&quot;&gt;EmpCode(FK)&lt;/u&gt;)" style="text;html=1;align=center;verticalAlign=middle;resizable=0;points=[];autosize=1;strokeColor=none;fillColor=none;" vertex="1" parent="1">
          <mxGeometry x="1120" y="400" width="570" height="30" as="geometry" />
        </mxCell>
        <mxCell id="Hw_CTKwdti1SMFfH982q-32" value="&lt;span style=&quot;text-wrap-mode: wrap;&quot;&gt;Account(&lt;/span&gt;&lt;u&gt;Number &lt;/u&gt;(PK),CusCode(FK))" style="text;html=1;align=center;verticalAlign=middle;resizable=0;points=[];autosize=1;strokeColor=none;fillColor=none;" vertex="1" parent="1">
          <mxGeometry x="1120" y="490" width="220" height="30" as="geometry" />
        </mxCell>
        <mxCell id="Hw_CTKwdti1SMFfH982q-33" value="SavingAccount(&lt;span style=&quot;background-color: transparent; color: light-dark(rgb(0, 0, 0), rgb(255, 255, 255));&quot;&gt;Balance,&lt;/span&gt;&lt;span style=&quot;background-color: transparent; color: light-dark(rgb(0, 0, 0), rgb(255, 255, 255));&quot;&gt;InterestRate,&lt;/span&gt;&lt;span style=&quot;background-color: transparent; color: light-dark(rgb(0, 0, 0), rgb(255, 255, 255));&quot;&gt;OpenedDate,Number(FK))&lt;/span&gt;" style="text;html=1;align=center;verticalAlign=middle;resizable=0;points=[];autosize=1;strokeColor=none;fillColor=none;" vertex="1" parent="1">
          <mxGeometry x="1120" y="532" width="360" height="30" as="geometry" />
        </mxCell>
        <mxCell id="Hw_CTKwdti1SMFfH982q-34" value="CheckingAccount(&lt;span style=&quot;color: light-dark(rgb(0, 0, 0), rgb(255, 255, 255)); background-color: transparent;&quot;&gt;Balance&lt;/span&gt;&lt;span style=&quot;color: light-dark(rgb(0, 0, 0), rgb(255, 255, 255)); background-color: transparent;&quot;&gt;,&lt;/span&gt;&lt;span style=&quot;color: light-dark(rgb(0, 0, 0), rgb(255, 255, 255)); background-color: transparent;&quot;&gt;OpenedDate,Number(FK)&lt;/span&gt;)" style="text;html=1;align=center;verticalAlign=middle;resizable=0;points=[];autosize=1;strokeColor=none;fillColor=none;" vertex="1" parent="1">
          <mxGeometry x="1120" y="582" width="310" height="30" as="geometry" />
        </mxCell>
        <mxCell id="Hw_CTKwdti1SMFfH982q-35" value="Loan(&lt;span style=&quot;color: light-dark(rgb(0, 0, 0), rgb(255, 255, 255)); background-color: transparent;&quot;&gt;BalanceDue,&lt;/span&gt;&lt;span style=&quot;color: light-dark(rgb(0, 0, 0), rgb(255, 255, 255)); background-color: transparent;&quot;&gt;InterestRate,Taken&lt;/span&gt;&lt;span style=&quot;color: light-dark(rgb(0, 0, 0), rgb(255, 255, 255)); background-color: transparent;&quot;&gt;Date,Number(FK)&lt;/span&gt;)" style="text;html=1;align=center;verticalAlign=middle;resizable=0;points=[];autosize=1;strokeColor=none;fillColor=none;" vertex="1" parent="1">
          <mxGeometry x="1120" y="632" width="320" height="30" as="geometry" />
        </mxCell>
        <mxCell id="Hw_CTKwdti1SMFfH982q-36" value="" style="endArrow=classic;html=1;rounded=0;exitX=0.809;exitY=0.9;exitDx=0;exitDy=0;exitPerimeter=0;entryX=0.405;entryY=1.041;entryDx=0;entryDy=0;entryPerimeter=0;" edge="1" parent="1" source="Hw_CTKwdti1SMFfH982q-35" target="Hw_CTKwdti1SMFfH982q-32">
          <mxGeometry width="50" height="50" relative="1" as="geometry">
            <mxPoint x="1450" y="637" as="sourcePoint" />
            <mxPoint x="1510" y="512" as="targetPoint" />
            <Array as="points">
              <mxPoint x="1379" y="672" />
              <mxPoint x="1510" y="672" />
              <mxPoint x="1510" y="532" />
              <mxPoint x="1210" y="532" />
            </Array>
          </mxGeometry>
        </mxCell>
        <mxCell id="Hw_CTKwdti1SMFfH982q-37" value="" style="endArrow=none;html=1;rounded=0;exitX=0.804;exitY=0.937;exitDx=0;exitDy=0;exitPerimeter=0;" edge="1" parent="1" source="Hw_CTKwdti1SMFfH982q-34">
          <mxGeometry width="50" height="50" relative="1" as="geometry">
            <mxPoint x="1460" y="632" as="sourcePoint" />
            <mxPoint x="1510" y="622" as="targetPoint" />
            <Array as="points">
              <mxPoint x="1370" y="622" />
            </Array>
          </mxGeometry>
        </mxCell>
        <mxCell id="Hw_CTKwdti1SMFfH982q-38" value="" style="endArrow=none;html=1;rounded=0;" edge="1" parent="1">
          <mxGeometry width="50" height="50" relative="1" as="geometry">
            <mxPoint x="1410" y="565" as="sourcePoint" />
            <mxPoint x="1510" y="572" as="targetPoint" />
            <Array as="points">
              <mxPoint x="1411" y="572" />
            </Array>
          </mxGeometry>
        </mxCell>
        <mxCell id="Hw_CTKwdti1SMFfH982q-39" value="" style="endArrow=classic;html=1;rounded=0;exitX=0.736;exitY=-0.004;exitDx=0;exitDy=0;exitPerimeter=0;" edge="1" parent="1" source="Hw_CTKwdti1SMFfH982q-32">
          <mxGeometry width="50" height="50" relative="1" as="geometry">
            <mxPoint x="1461.19" y="484.55999999999995" as="sourcePoint" />
            <mxPoint x="1213" y="430" as="targetPoint" />
            <Array as="points">
              <mxPoint x="1280" y="470" />
              <mxPoint x="1370" y="470" />
              <mxPoint x="1370" y="440" />
              <mxPoint x="1320" y="440" />
            </Array>
          </mxGeometry>
        </mxCell>
        <mxCell id="Hw_CTKwdti1SMFfH982q-40" value="" style="endArrow=classic;html=1;rounded=0;exitX=0.944;exitY=0.152;exitDx=0;exitDy=0;exitPerimeter=0;entryX=0.142;entryY=0.911;entryDx=0;entryDy=0;entryPerimeter=0;" edge="1" parent="1" source="Hw_CTKwdti1SMFfH982q-31" target="Hw_CTKwdti1SMFfH982q-30">
          <mxGeometry width="50" height="50" relative="1" as="geometry">
            <mxPoint x="1470" y="360" as="sourcePoint" />
            <mxPoint x="1400" y="337" as="targetPoint" />
            <Array as="points">
              <mxPoint x="1660" y="360" />
              <mxPoint x="1207" y="360" />
            </Array>
          </mxGeometry>
        </mxCell>
        <mxCell id="Hw_CTKwdti1SMFfH982q-41" value="" style="endArrow=classic;html=1;rounded=0;entryX=0.127;entryY=1.041;entryDx=0;entryDy=0;entryPerimeter=0;" edge="1" parent="1" target="Hw_CTKwdti1SMFfH982q-29">
          <mxGeometry width="50" height="50" relative="1" as="geometry">
            <mxPoint x="1680" y="310" as="sourcePoint" />
            <mxPoint x="1190" y="295" as="targetPoint" />
            <Array as="points">
              <mxPoint x="1680" y="260" />
              <mxPoint x="1191" y="260" />
            </Array>
          </mxGeometry>
        </mxCell>
        <mxCell id="Hw_CTKwdti1SMFfH982q-42" value="&lt;div&gt;BRANCHPHONE(BraName, Phone)&lt;/div&gt;" style="text;html=1;align=center;verticalAlign=middle;resizable=0;points=[];autosize=1;strokeColor=none;fillColor=none;" vertex="1" parent="1">
          <mxGeometry x="1120" y="265" width="220" height="30" as="geometry" />
        </mxCell>
        <mxCell id="Hw_CTKwdti1SMFfH982q-43" value="BRANCHFAX(BraName, Fax)" style="text;html=1;align=center;verticalAlign=middle;resizable=0;points=[];autosize=1;strokeColor=none;fillColor=none;" vertex="1" parent="1">
          <mxGeometry x="1120" y="295" width="180" height="30" as="geometry" />
        </mxCell>
        <mxCell id="Hw_CTKwdti1SMFfH982q-44" value="&lt;div&gt;EMPLOYEEPHONE(EmpCode, Phone)&lt;/div&gt;" style="text;html=1;align=center;verticalAlign=middle;resizable=0;points=[];autosize=1;strokeColor=none;fillColor=none;" vertex="1" parent="1">
          <mxGeometry x="1120" y="370" width="230" height="30" as="geometry" />
        </mxCell>
        <mxCell id="Hw_CTKwdti1SMFfH982q-45" value="CUSTOMERPHONE(CusCode, Phone)" style="text;html=1;align=center;verticalAlign=middle;resizable=0;points=[];autosize=1;strokeColor=none;fillColor=none;" vertex="1" parent="1">
          <mxGeometry x="1120" y="440" width="230" height="30" as="geometry" />
        </mxCell>
        <mxCell id="Hw_CTKwdti1SMFfH982q-46" value="&lt;font style=&quot;font-size: 18px;&quot;&gt;Cớ sở dữ liệu mức lý luận&lt;/font&gt;" style="text;html=1;align=center;verticalAlign=middle;resizable=0;points=[];autosize=1;strokeColor=none;fillColor=none;" vertex="1" parent="1">
          <mxGeometry x="1215" y="713" width="230" height="40" as="geometry" />
        </mxCell>
      </root>
    </mxGraphModel>
  </diagram>
</mxfile>
